<svg t="1605349851981" class="icon" viewBox="0 0 3313 1024" version="1.1" xmlns="http://www.w3.org/2000/svg" width="94" height="28"><path d="M651.186899 0c30.027294 0 57.825882 20.510118 62.674823 50.115765a60.295529 60.295529 0 0 1-55.055058 70.204235L654.439605 120.470588H181.050428c-9.035294 0-14.968471 8.975059-12.107294 17.016471l1.024 2.16847 389.451294 674.544942c4.487529 7.770353 15.058824 8.463059 20.630588 2.108235l1.505883-2.108235 232.538353-402.733177c15.751529-27.256471 49.754353-40.809412 78.516706-27.858823a60.235294 60.235294 0 0 1 29.665882 81.106823l-2.108235 4.035765-290.725647 503.567059a68.306824 68.306824 0 0 1-58.910118 34.032941c-22.588235 0-43.670588-11.294118-56.229647-29.756235l-2.740706-4.397177L9.078664 102.038588a68.216471 68.216471 0 0 1 0-68.005647A68.246588 68.246588 0 0 1 62.898899 0.210824L68.018899 0H651.186899z m1542.806588 369.302588c97.942588 0 158.900706 57.584941 162.002824 152.877177l0.12047 7.408941v277.202823c-5.421176 21.504-24.094118 36.502588-45.447529 36.502589-19.907765 0-37.496471-13.040941-44.152471-32.286118l-1.264941-4.216471v-260.999529c0-65.716706-36.080941-102.339765-102.580706-102.339765s-111.013647 42.616471-113.754353 107.218824l-0.12047 6.324706v249.795764c-5.481412 21.473882-24.094118 36.382118-45.417412 36.382118-19.877647 0-37.436235-13.010824-44.122353-32.165647l-1.264941-4.216471V374.091294h86.497882v72.944941h1.656471c27.648-50.989176 77.462588-77.703529 147.847529-77.703529zM1593.929487 196.065882c20.781176 0 39.574588 12.348235 48.730353 31.472942l1.807059 4.21647 218.202353 574.945882c-8.071529 21.202824-27.708235 35.087059-49.603765 35.087059a53.187765 53.187765 0 0 1-47.826823-30.930823l-1.746824-4.156236-55.416471-155.346823h-229.918117l-55.416471 155.346823-1.927529 4.306824c-9.035294 18.070588-27.015529 29.605647-46.832941 29.605647a52.585412 52.585412 0 0 1-46.832942-29.605647L1325.21984 806.671059l218.172235-574.945883 1.807059-4.21647a54.241882 54.241882 0 0 1 48.730353-31.472941z m968.432941 83.365647c17.468235 0 33.551059 9.306353 42.857412 24.425412l2.198588 3.915294h0.301177v97.28h87.250823c10.782118 7.800471 17.257412 20.510118 17.257412 34.123294 0 12.047059-5.12 23.491765-13.854118 31.201883l-3.403294 2.740706h-86.949647v241.995294c0 37.647059 17.347765 54.994824 55.416471 54.994823 8.252235 0 20.841412-0.873412 27.979294-1.596235l3.041882-0.391529c10.631529 7.920941 16.956235 20.600471 16.956236 34.123294a42.164706 42.164706 0 0 1-13.552942 31.171764l-3.403294 2.740706-10.149647 1.686589c-13.552941 1.957647-27.226353 2.861176-40.96 2.710588-88.335059 0-124.024471-31.232-125.952-109.869177l-0.090353-6.836706v-250.608941h-62.765176a41.562353 41.562353 0 0 1-17.016471-33.792c0-11.986824 5.029647-23.311059 13.613177-31.021176l3.403294-2.770824v-0.602353h62.765176v-97.28l2.198588-3.915294a50.447059 50.447059 0 0 1 42.857412-24.395294zM2830.289016 180.705882c20.871529 0 39.815529 12.318118 49.091765 31.503059l1.807059 4.216471h-0.301176l164.562823 474.563764h2.499765l165.285647-474.563764 1.776941-4.186353a53.428706 53.428706 0 0 1 48.097882-31.232c20.570353 0 39.152941 12.227765 48.097883 31.232l1.776941 4.21647-215.401412 574.945883c-5.752471 24.696471-26.985412 42.104471-51.410823 42.10447-22.889412 0-42.977882-15.299765-50.176-37.586823l-1.234824-4.517647-215.401412-574.945883 1.837177-4.246588A54.784 54.784 0 0 1 2830.289016 180.705882zM1594.170428 327.499294h-2.499764l-90.051765 252.084706 182.603294 0.120471-90.051765-252.205177zM689.737487 274.642824c24.576 0 40.357647 25.419294 30.539294 47.134117l-1.596235 3.072-108.93553 188.717177a33.490824 33.490824 0 0 1-55.777882 3.343058l-2.198588-3.312941-108.93553-188.747294a33.490824 33.490824 0 0 1 25.539765-50.025412l3.433412-0.180705h217.931294zM1072.954428 0c24.274824 0 46.802824 13.040941 58.940236 34.032941 11.143529 19.335529 11.986824 43.068235 2.529882 63.096471l-2.590118 4.909176-119.205647 206.516706a60.144941 60.144941 0 0 1-89.569882 17.106824c-22.618353-17.769412-27.708235-49.904941-15.450353-75.685647l2.499765-4.758589 60.928-105.562353a12.8 12.8 0 0 0-8.673883-18.974117L959.953016 120.470588h-105.953882c-29.997176 0-57.825882-20.510118-62.644706-50.115764a60.325647 60.325647 0 0 1 55.115294-70.174118L850.776546 0h222.147765z" fill="#ffffff"></path></svg>
