<svg width="16" height="13" viewBox="0 0 16 13" fill="none" xmlns="http://www.w3.org/2000/svg">
<path fill-rule="evenodd" clip-rule="evenodd" d="M12.9025 3.19182H11.1547L11.1547 3.19184C10.8798 3.19184 10.7448 3.11986 10.7279 3.06945C10.7062 3.02625 10.7304 2.89426 10.8774 2.70948L12.7916 0.326299C12.9483 0.131919 13.1484 0.0239258 13.3605 0.0239258C13.5703 0.0239258 13.7728 0.129524 13.9295 0.326317L15.8412 2.70703C15.9907 2.89183 16.0148 3.02382 15.9931 3.06701C15.9666 3.11982 15.834 3.19181 15.5592 3.19181H13.8114V9.07404C13.8114 9.37163 13.6088 9.61401 13.3581 9.61401C13.1074 9.61401 12.9025 9.37163 12.9025 9.07403V3.19182ZM0.544814 4.0438H7.62527C7.92422 4.0438 8.1677 4.2454 8.1701 4.49739C8.1701 4.74698 7.92662 4.95097 7.62769 4.95097H0.544795C0.245883 4.95097 0.00238667 4.74698 0.00238667 4.49739C0.00238667 4.24779 0.245883 4.0438 0.544814 4.0438ZM0.544814 8.05407H7.62527C7.92422 8.05407 8.1677 8.25806 8.1701 8.50765C8.1701 8.75725 7.92662 8.96124 7.62769 8.96124H0.544795C0.245883 8.96124 0.00238667 8.75725 0.00238667 8.50765C0.00238667 8.25806 0.245883 8.05407 0.544814 8.05407ZM7.61563 12.0691H0.552067C0.248307 12.0691 0 12.2731 0 12.5227C0 12.7723 0.245902 12.9763 0.552067 12.9763H7.61565C7.92181 12.9763 8.16772 12.7723 8.16772 12.5227C8.16772 12.2731 7.92181 12.0691 7.61565 12.0691H7.61563Z" fill="#67798a"/>
<path fill-rule="evenodd" clip-rule="evenodd" d="M0.535884 0.0239258H7.53092C7.82626 0.0239258 8.0668 0.227997 8.06918 0.477673C8.06918 0.727367 7.82864 0.931438 7.53332 0.931438H0.535865C0.240559 0.931438 0 0.727367 0 0.477673C0 0.227997 0.240559 0.0239258 0.535884 0.0239258ZM14.6927 12.9763H0.545407C0.242935 12.9763 0 12.7746 0 12.5226C0 12.2729 0.24533 12.0688 0.545407 12.0688H14.6927C14.9952 12.0688 15.2381 12.2729 15.2381 12.5226C15.2381 12.7722 14.9928 12.9763 14.6927 12.9763Z" fill="currentColor"/>
</svg>
