<svg width="8" height="9" viewBox="0 0 8 9" fill="none" xmlns="http://www.w3.org/2000/svg">
<g opacity="0.4">
<path fill-rule="evenodd" clip-rule="evenodd" d="M7.47924 3.73512L3.03527 0.110955C2.77279 -0.102231 2.36098 0.0691536 2.36098 0.392068V7.64039C2.36098 7.9633 2.77279 8.13469 3.03527 7.9215L7.47924 4.29734C7.66252 4.1479 7.66252 3.88456 7.47924 3.73512ZM1.47072 0.151716L1.47072 7.88075C1.47072 7.95495 1.4051 8.01556 1.32477 8.01661H0.52943C0.449104 8.01661 0.383485 7.95599 0.383485 7.8818L0.383485 0.151716C0.383485 0.0775184 0.449104 0.0169067 0.52943 0.0169067L1.32477 0.0169067C1.4051 0.0169067 1.47072 0.0775184 1.47072 0.151716Z" fill="currentColor"/>
</g>
</svg>
