<svg t="1604513576534" class="icon" viewBox="0 0 3211 1024" version="1.1" xmlns="http://www.w3.org/2000/svg" pid="913" width="200" height="200"><path d="M660.014545 0.349091a62.836364 62.836364 0 0 1 3.607273 125.556364l-3.979636 0.116363H195.211636a15.825455 15.825455 0 0 0-13.637818 22.109091l1.117091 2.117818-1.210182-0.698182-12.869818-22.36509A84.759273 84.759273 0 0 1 237.381818 1.512727H71.493818a68.305455 68.305455 0 0 0-30.161454 6.027637h-0.302546l-3.677091 1.815272-4.654545 2.699637-1.117091 0.698182-3.677091 2.676363-2.606545 2.094546-2.094546 1.931636-2.629818 2.606545-2.001455 2.164364-1.861818 2.210909-2.210909 2.909091-2.117818 3.188364-2.164364 3.607272-1.396363-0.814545 0.651636-1.163636 2.420364-3.770182 1.349818-1.885091 1.629091-2.164364 1.163636-1.396363V24.669091L19.176727 21.178182 21.178182 19.223273l2.955636-2.653091 2.257455-1.815273 3.188363-2.327273 2.397091-1.605818 3.886546-2.210909 3.048727-1.559273 2.676364-1.186909 3.421091-1.326545 3.025454-1.000727 2.56-0.698182h0.279273L53.76 2.164364h0.837818l2.327273-0.395637h0.744727l3.025455-0.418909h598.807272l0.488728-1.000727z" fill="#E5E5E5" pid="914"></path><path d="M237.381818 1.512727a84.759273 84.759273 0 0 0-71.237818 120.832l2.466909 4.840728 244.363636 424.168727 2.257455 4.119273 1.954909 4.282181 146.850909 254.370909a15.825455 15.825455 0 0 0 25.437091 0.977455l1.303273-1.908364L821.992727 412.858182l2.164364-3.677091a62.696727 62.696727 0 0 1 48.593454-28.811636l4.282182-0.139637-0.698182-0.046545a62.743273 62.743273 0 0 1 55.435637 92.090182l-2.257455 3.93309-277.643636 480.861091-2.955636 5.026909-13.428364 23.226182-1.722182 2.862546-1.861818 2.722909-1.931636 2.536727-2.071273 2.490182-2.094546 2.327273-2.234181 2.187636-0.349091 0.302545-2.187637 1.978182-2.280727 1.908364-0.651636 0.488727-1.396364 1.070546-0.674909 0.442181-2.397091 1.652364-1.024 0.651636-1.303273 0.814546-1.652363 0.954182-1.512728 0.814545-1.396363 0.744727-1.163637 0.558546-2.327272 1.047273-0.884364 0.349091-1.861818 0.768-1.000727 0.34909-2.56 0.837819h-0.605091l-2.280728 0.651636h-0.907636l-2.792727 0.674909h-0.418909l-2.606546 0.442182h-0.814545l-2.955637 0.395636h-13.777454l-2.792727-0.349091h-0.814546l-2.885818-0.488727h-0.442182l-2.420364-0.558545h-0.930909l-2.629818-0.768-0.814545-0.232728-1.908364-0.651636-1.093818-0.418909-2.024727-0.791273-1.442909-0.651636-1.373091-0.605091-1.303273-0.651636-1.163636-0.605091-2.304-1.256728-0.791273-0.465454-1.559273-0.930909-1.698909-1.140364-1.675636-1.140364h-0.232728a68.305455 68.305455 0 0 1-17.524363-18.618181l-2.606546-4.445091L15.755636 114.711273l-6.050909-10.472728-2.350545-4.258909A68.026182 68.026182 0 0 1 6.679273 39.796364l2.280727-4.328728 1.256727 0.698182 0.558546-1.000727 0.768-1.349818 0.837818-1.303273 0.395636-0.674909 1.722182-2.513455 1.698909-2.257454 0.512-0.651637 1.861818-2.210909 0.279273-0.349091 1.722182-1.815272 0.651636-0.698182 1.954909-1.908364 0.605091-0.558545 1.512728-1.349818 0.907636-0.768 1.698909-1.349819 1.256727-0.930909 1.210182-0.884363 1.210182-0.837818 1.093818-0.698182 2.280727-1.373091 0.791273-0.465455 1.629091-0.884363 3.653818-1.815273h0.302546c7.889455-3.560727 16.360727-5.585455 24.971636-5.981091l5.189818-0.046545H237.381818z m1781.946182 387.723637a41.099636 41.099636 0 0 1 38.237091 24.343272l1.256727 3.258182v63.441455h1.512727c25.041455-44.404364 70.237091-67.630545 134.074182-67.630546 89.297455 0 144.500364 50.432 146.804364 133.818182l0.093091 5.748364v241.291636a42.635636 42.635636 0 0 1-81.338182 3.421091l-1.070545-3.421091v-227.165091c0-57.227636-32.721455-89.134545-93.044364-89.134545-60.439273 0-100.864 37.236364-103.191273 93.649454l-0.116363 5.166546v217.413818a42.635636 42.635636 0 0 1-81.31491 3.444364l-1.070545-3.444364V416.837818l1.256727-3.258182a40.494545 40.494545 0 0 1 37.911273-24.343272zM1650.036364 261.864727c18.967273 0 36.119273 10.868364 44.334545 27.694546l1.512727 3.467636 198.050909 500.410182a48.407273 48.407273 0 0 1-88.366545 3.607273l-1.605818-3.607273-50.269091-135.214546h-208.919273l-50.269091 135.214546-1.629091 3.490909a47.918545 47.918545 0 0 1-85.224727 0l-1.629091-3.490909 198.167273-500.410182 1.536-3.467636a49.314909 49.314909 0 0 1 44.311273-27.694546z m878.545454 72.564364c15.825455 0 30.440727 8.052364 38.888727 21.201454l2.001455 3.397819h0.302545v84.596363h79.057455v0.395637a35.793455 35.793455 0 0 1 2.816 56.994909l-2.792727 2.117818h-79.034182v210.478545c0 32.791273 15.941818 47.872 50.501818 47.872 7.68 0 19.362909-0.814545 25.739636-1.489454l2.373819-0.279273 0.046545 0.302546a36.049455 36.049455 0 0 1 2.792727 56.92509l-2.792727 2.141091-9.192727 1.442909c-12.311273 1.698909-24.715636 2.490182-37.143273 2.373819-80.430545 0-112.779636-27.368727-114.315636-96.349091l-0.046546-5.236364v-218.321454h-57.018182a35.793455 35.793455 0 0 1-2.769454-56.692364l2.792727-2.117818v-0.558546h56.948364v-84.596363l1.978182-3.397819a46.242909 46.242909 0 0 1 38.865454-21.201454z m243.386182-85.946182a49.803636 49.803636 0 0 1 44.637091 27.671273l1.536 3.444363h-0.302546l149.294546 412.997819h2.280727l149.643637-412.997819 1.489454-3.42109a48.570182 48.570182 0 0 1 87.505455 0l1.489454 3.42109-194.792727 500.433455c-3.467636 20.759273-22.970182 36.631273-46.638546 36.631273-22.365091 0-41.053091-14.196364-45.940363-33.233455l-0.721455-3.397818-195.653818-500.433455 1.559273-3.444363a49.803636 49.803636 0 0 1 44.613818-27.671273z m-1121.675636 127.627636h-2.257455l-81.687273 219.531637h165.632l-81.687272-219.531637z m-949.434182-92.16c9.821091-0.023273 18.990545 4.608 24.762182 12.404364l1.792 2.699636v-0.465454c4.864 8.424727 5.399273 18.594909 1.629091 27.392l-1.629091 3.234909-115.665455 201.122909a30.603636 30.603636 0 0 1-51.269818 2.722909l-1.768727-2.722909-115.618909-200.424727a30.603636 30.603636 0 0 1 23.272727-45.777455l3.258182-0.162909h231.237818zM1086.487273 1.373091a68.026182 68.026182 0 0 1 67.304727 64.349091l0.093091 3.956363v7.307637l-0.302546 1.326545-0.046545 1.28v1.000728l-0.349091 1.210181-0.093091 1.210182-0.256 1.256727-0.418909 1.768728-0.349091 1.349818-0.395636 1.396364-0.372364 1.256727-0.372363 1.210182-0.302546 0.930909-0.651636 1.745454-0.768 1.861818-0.791273 1.861819v0.232727l-1.419636 2.885818-1.559273 2.792727-116.759273 202.24a62.836364 62.836364 0 0 1-112.104727-56.622545l1.861818-3.700364 56.645818-97.722182a15.685818 15.685818 0 0 0 0.907637-5.026909 15.825455 15.825455 0 0 0-11.403637-15.197091l-2.280727-0.465454h-112.081455a62.836364 62.836364 0 0 1-3.979636-125.556364l3.956364-0.139636h236.288z" fill="#FFFFFF" pid="915"></path></svg>
